<svg xmlns="http://www.w3.org/2000/svg" height="136.667" width="543.067"><g><path d="M420.727 54.18h-.578l-.287 1.822-2.976 22.273h7.105l-2.976-22.273-.288-1.823m-194.133-7.01c-1.056-3.359-3.072-3.742-6.623-3.742v49.827c3.551 0 5.567-.385 6.623-3.841.482-1.633.866-4.128.962-7.49.094-3.359.094-7.872.094-13.632s0-10.273-.094-13.632c-.096-3.263-.48-5.76-.962-7.49M464.01 72.708c-1.728-1.248-3.746-1.058-4.608-1.058v21.698c.862 0 2.88.192 4.608-1.055 1.728-1.247 3.07-4.031 3.07-9.794 0-5.76-1.342-8.544-3.07-9.791M83.08 47.169c-1.056-3.359-3.072-3.742-6.624-3.742v49.827c3.552 0 5.568-.385 6.624-3.841.48-1.633.865-4.128.96-7.49.096-3.359.096-7.872.096-13.632s0-10.273-.095-13.632c-.096-3.263-.48-5.76-.961-7.49"/><path d="M474.473 97.285c-2.4 3.648-6.527 6.05-12.673 6.336h-12.769V33.058h9.122c6.143 0 10.945 1.15 14.113 4.127 3.167 2.977 4.8 7.586 4.8 14.593 0 3.36-.287 5.857-1.343 8.162-1.058 2.302-2.69 4.224-5.09 6.432 2.593 1.44 4.512 4.127 6.05 8.64.768 2.209 1.152 5.089 1.152 8.64 0 5.282-.962 9.985-3.362 13.633zm-47.122 6.336l-1.92-14.4h-9.985l-1.922 14.4h-10.08l10.658-70.563h12.673l10.655 70.563zm-35.807 0h-24.099V33.058h10.37v60.964h13.729zm-57.53 0h-9.6V56.29h-.577l-.384 2.977-6.624 44.353h-4.417l-6.624-44.353-.384-2.977h-.576v47.33h-9.6V33.058H307.9l6.144 32.257.48 3.744h.192l.48-3.744 6.145-32.257h12.673zm-55.388-59.907h-13.345v18.528h9.6v11.33h-9.6v19.393h13.345v10.656h-23.715V33.058h23.715zm-43.295 52.61c-2.783 5.378-7.969 7.297-17.568 7.297H209.6V33.058h8.162c9.6 0 14.785 1.919 17.568 7.296 2.69 5.375 3.074 14.208 3.074 28.034 0 13.825-.384 22.561-3.074 27.936zm-42.364 7.297h-10.37V33.058h10.37zm-26.944-45.218h-10.37V47.555c0-1.922-.385-3.266-1.345-4.417-.48-.479-1.246-.768-2.112-.768-1.824 0-2.688 1.344-3.072 2.59-.288.77-.382 1.634-.382 2.595v41.569c0 .96.094 1.825.382 2.594.384 1.247 1.248 2.59 3.072 2.59.866 0 1.632-.288 2.112-.768.96-1.15 1.344-2.494 1.344-4.416V77.22h-2.805v-8.737h13.176v20.64c-.098 2.784-.672 5.377-1.728 7.586-.866 1.919-2.21 3.838-4.13 5.278-1.92 1.44-4.513 2.401-7.969 2.401-3.454 0-6.144-.96-8.064-2.4s-3.168-3.36-4.033-5.28c-1.056-2.208-1.63-4.801-1.728-7.585v-41.57c.098-2.783.672-5.377 1.728-7.585.865-1.92 2.113-3.839 4.033-5.279 1.92-1.44 4.61-2.4 8.064-2.4 3.456 0 6.05.96 7.97 2.4s3.263 3.36 4.129 5.279c1.056 2.208 1.63 4.802 1.728 7.586zm-44.257 45.218h-10.37V33.058h10.37zm-29.949-7.297c-2.784 5.378-7.969 7.297-17.569 7.297h-8.161V33.058h8.161c9.6 0 14.785 1.919 17.569 7.296 2.689 5.375 3.072 14.208 3.072 28.034 0 13.825-.383 22.561-3.072 27.936zM0 .004v136.663h543.05V.004H0"/><path d="M464.01 44.385c-1.728-1.15-3.746-1.054-4.608-1.054v18.817c.862 0 2.88.094 4.608-1.057s3.07-3.456 3.07-8.352c0-4.898-1.342-7.2-3.07-8.354"/></g></svg>