<svg data-name="Lager 1" xmlns="http://www.w3.org/2000/svg" viewBox="0 0 299.99 75.5"><path d="M256.33 40.16a4.05 4.05 0 0 0-2.54-.58v12a4 4 0 0 0 2.54-.59c1-.69 1.7-2.22 1.7-5.41s-.74-4.73-1.7-5.42zm-131.16-14.1c-.58-1.86-1.69-2.07-3.65-2.07v27.52c2 0 3.07-.21 3.65-2.12a17 17 0 0 0 .54-4.13c.05-1.86.05-4.35.05-7.54s0-5.67-.05-7.53a17.83 17.83 0 0 0-.54-4.13zm107.25 3.87h-.32l-.16 1.01-1.64 12.3h3.92l-1.64-12.3-.16-1.01z"/><path d="M0 0v75.5h300V0zm50.72 53.21c-1.54 3-4.4 4-9.71 4H36.5v-39H41c5.31 0 8.17 1.06 9.71 4s1.7 7.85 1.7 15.49-.21 12.54-1.69 15.51zm16.54 4h-5.73v-39h5.73zm24.45-25H86v-6a3.53 3.53 0 0 0-.74-2.44 1.63 1.63 0 0 0-1.17-.43 1.77 1.77 0 0 0-1.69 1.44 4 4 0 0 0-.21 1.43v23a4.11 4.11 0 0 0 .21 1.44 1.77 1.77 0 0 0 1.69 1.43 1.63 1.63 0 0 0 1.17-.43 3.53 3.53 0 0 0 .74-2.42v-6.57h-1.57v-4.83h7.28v11.4a10.57 10.57 0 0 1-.95 4.19 7.52 7.52 0 0 1-2.28 2.92 7.12 7.12 0 0 1-4.41 1.33 7.27 7.27 0 0 1-4.45-1.33 7.38 7.38 0 0 1-2.23-2.92 10.57 10.57 0 0 1-1-4.19v-23a10.57 10.57 0 0 1 1-4.19 6.71 6.71 0 0 1 6.68-4.24 7.19 7.19 0 0 1 4.41 1.32 7.52 7.52 0 0 1 2.28 2.92 10.57 10.57 0 0 1 .95 4.19zm14.89 25h-5.73v-39h5.73zm23.4-4c-1.54 3-4.4 4-9.7 4h-4.51v-39h4.51c5.3 0 8.16 1.06 9.7 4s1.7 7.85 1.7 15.49-.21 12.54-1.7 15.51zm23.92-29.06h-7.37v10.23h5.3v6.26h-5.3v10.72h7.37v5.88h-13.1v-39h13.1zm30.6 33.09h-5.31V31.1h-.32l-.21 1.64-3.68 24.5h-2.44l-3.66-24.5-.21-1.64h-.32v26.14h-5.3v-39h7l3.39 17.82.27 2.07h.11l.26-2.07 3.4-17.82h7zm31.78 0H203v-39h5.72v33.7h7.59zm19.78 0l-1.06-8h-5.52l-1.06 8h-5.57l5.89-39h7l5.89 39zm26-3.5c-1.32 2-3.6 3.34-7 3.5h-7.05v-39h5c3.39 0 6 .64 7.79 2.28s2.65 4.19 2.65 8.06a10.34 10.34 0 0 1-.74 4.51 11.1 11.1 0 0 1-2.73 3.57c1.43.8 2.49 2.28 3.34 4.78a14.66 14.66 0 0 1 .64 4.77 13.53 13.53 0 0 1-1.87 7.53z"/><path d="M256.33 24.52a4.34 4.34 0 0 0-2.54-.58v10.39a4.42 4.42 0 0 0 2.54-.58c1-.64 1.7-1.91 1.7-4.62s-.74-3.97-1.7-4.61zM45.89 26.06c-.58-1.86-1.7-2.06-3.66-2.06v27.51c2 0 3.08-.21 3.66-2.12a16.65 16.65 0 0 0 .53-4.13V30.19a17.39 17.39 0 0 0-.53-4.13z"/></svg>