<svg id="Lager_1" xmlns="http://www.w3.org/2000/svg" viewBox="0 0 299 180"><style>.st0{fill:#ffb800}.st1{fill:#ff7484}.st2{fill:#1d1d1b}</style><path class="st0" d="M105.1 21c36.3-24.4 86.7-14.2 110.6 22.3 20.4 31.1 16.4 72.2-9.5 98.8-5.6 5.7-6.4 14.6-2 21.3l3.9 6c.6.9.4 2.2-.6 2.9-.5.3-1.1.4-1.6.3l-31.8-8.1c-2.5-.7-5.2-.7-7.8-.2-42.8 9.3-85.1-17.8-94.4-60.6-6.8-31.8 6.3-64.5 33.2-82.7"/><path class="st1" d="M193.7 169.5l-3.9-6c-4.4-6.7-3.6-15.5 2-21.3 30.6-31.2 30-81.3-1.2-111.8-13.2-12.9-30.4-20.8-48.8-22.3 28.4-2.6 57.4 10.1 74 35.3 20.4 31.1 16.4 72.2-9.5 98.8-5.6 5.7-6.4 14.6-2 21.3l3.9 6c.6.9.4 2.2-.6 2.9-.5.3-1.1.4-1.6.3l-12.3-3.2"/><path class="st2" d="M186.9 60.7h-74.7c-2 0-3.6-1.6-3.6-3.6s1.6-3.6 3.6-3.6h74.7c2 0 3.6 1.6 3.6 3.6s-1.6 3.6-3.6 3.6m0 16.5h-74.7c-2 .1-3.7-1.4-3.8-3.4-.1-2 1.4-3.7 3.4-3.8h75.1c2-.1 3.7 1.4 3.8 3.4.1 2-1.4 3.7-3.4 3.8h-.4m0 16.5h-74.7c-2 .1-3.7-1.4-3.8-3.4-.1-2 1.4-3.7 3.4-3.8h75.1c2-.1 3.7 1.4 3.8 3.4.1 2-1.4 3.7-3.4 3.8h-.4m0 16.3h-74.7c-2 .1-3.7-1.4-3.8-3.4-.1-2 1.4-3.7 3.4-3.8h75.1c2-.1 3.7 1.4 3.8 3.4.1 2-1.4 3.7-3.4 3.8h-.4m0 16.6h-74.7c-2 .1-3.7-1.4-3.8-3.4-.1-2 1.4-3.7 3.4-3.8h75.1c2-.1 3.7 1.4 3.8 3.4.1 2-1.4 3.7-3.4 3.8h-.4"/><path class="st2" d="M163.7 5.2c42.9 7.2 72.9 46.6 68.4 89.9-1.9 18.6-10.1 36-23.1 49.4-4.4 4.5-5 11.5-1.6 16.8l4 6c1.7 2.6 1 6.1-1.6 7.8-1.3.9-3 1.1-4.5.7l-31.8-8.1c-2-.5-4.1-.6-6.1-.1-3.8.8-7.7 1.4-11.6 1.7-2 .1-3.7-1.3-3.9-3.3s1.3-3.7 3.3-3.9c3.5-.3 7.1-.8 10.6-1.5 3.1-.7 6.3-.6 9.4.2l28 7.2-1.8-2.7c-5.3-8.1-4.3-18.8 2.5-25.8 40.9-41.9 20.6-114.7-39.3-126.8C98.4-.7 49.7 72.3 86.1 128c12 18.3 31.3 30.5 52.9 33.6 2 .3 3.3 2.1 3 4.1-.3 1.9-2.1 3.3-4 3-38.1-5.3-67.6-36.2-71.2-74.5-.3-2.5-.4-4.9-.3-7.4 0-11.8 2.5-23.6 7.3-34.4l3.7-7.2c1.9-3.2 3.9-6.3 6.2-9.3l6.3-7.2c3.3-3.3 6.8-6.4 10.6-9.1l11.9-7.2c13.5-6.7 28.7-9.5 43.7-8.2 2.5.2 3.6.4 7.5 1"/></svg>