<svg viewBox="0 0 299.99 299.99" xmlns="http://www.w3.org/2000/svg"><path d="M169 76.82a42.1 42.1 0 1 1-42.1 42.1 42.09 42.09 0 0 1 42.1-42.1" fill="#ad0470"/><path d="M241.28 103.47v30.89l-19.46 3.51a55.56 55.56 0 0 1-9.68 16.74l6.71 18.62-26.76 15.45-12.76-15.11a56.21 56.21 0 0 1-9.68.84L161 162.27l8.68-14a29.33 29.33 0 0 0 0-58.66l-8.68-15 8.68-11.11a56.21 56.21 0 0 1 9.68.84l12.76-15.11 26.76 15.45-6.71 18.62a55.44 55.44 0 0 1 9.65 16.7z" fill="#ededed"/><path d="M169.65 43.59v155.33h-20.9A11.74 11.74 0 0 1 137 187.19a14 14 0 0 0-6.32-11.73A71.69 71.69 0 0 1 168.61 43.6h1" fill="#ffb800"/><path d="M158.67 198.92h-9.91A11.73 11.73 0 0 1 137 187.18a13.93 13.93 0 0 0-6.31-11.71A71.69 71.69 0 0 1 168.61 43.6h.5c-20.47.55-37.1 32.58-37.14 71.53 0 25.29 6.84 47.54 17.21 60.34 2.08 2.57 3.32 7 3.32 11.71 0 6.49 2.77 11.74 6.17 11.74" fill="#ff7484"/><path d="M193.2 218.44h-47.09a9.09 9.09 0 0 1-9.09-9.08V208a9.09 9.09 0 0 1 9.09-9.08h47.09a9.09 9.09 0 0 1 9.09 9.08v1.36a9.09 9.09 0 0 1-9.09 9.08m0 19.56h-47.09a9.09 9.09 0 0 1-9.09-9.09v-1.35a9.09 9.09 0 0 1 9.09-9.09h47.09a9.09 9.09 0 0 1 9.09 9.09v1.35a9.09 9.09 0 0 1-9.09 9.09" fill="#ededed"/><path d="M166.69 218.44h-19.91a9.76 9.76 0 0 1 0-19.52h19.91a9.76 9.76 0 1 0 0 19.52m0 19.56h-19.91a9.76 9.76 0 0 1 0-19.52h19.91a9.76 9.76 0 1 0 0 19.52" fill="#dadada"/><path d="M169 105.45a13.47 13.47 0 1 1-13.47 13.47A13.47 13.47 0 0 1 169 105.45" fill="#00f1a4"/><path d="M151.22 238a18.44 18.44 0 0 0 36.87 0" fill="#7b6671"/><g fill="#1d1d1b"><path d="M185.52 215.19a3.26 3.26 0 0 0 0 6.51h7.68a5.83 5.83 0 0 1 5.83 5.83v1.35a5.84 5.84 0 0 1-5.83 5.83h-47.09a5.84 5.84 0 0 1-5.83-5.83v-1.35a5.84 5.84 0 0 1 5.83-5.83h28.56a3.26 3.26 0 0 0 0-6.51h-28.56a5.84 5.84 0 0 1-5.83-5.83V208a5.83 5.83 0 0 1 5.83-5.82h47.09A5.83 5.83 0 0 1 199 208v1.36a5.84 5.84 0 0 1-5.83 5.83zm-15.86 37.95a15.21 15.21 0 0 1-14.83-11.92h29.65a15.2 15.2 0 0 1-14.82 11.92m-10.21-134.22a10.21 10.21 0 0 1 7-9.67v19.34a10.21 10.21 0 0 1-7-9.67m20.41 0a10.21 10.21 0 0 1-7 9.67v-19.34a10.21 10.21 0 0 1 7 9.67m13.34 76.74h-20.29v-60.34a16.72 16.72 0 0 0 0-32.8V43.59a3.26 3.26 0 0 0-3.26-3.26h-1.09a74.59 74.59 0 0 0-36.34 10.08A76 76 0 0 0 105.91 76a3.26 3.26 0 1 0 5.54 3.43 68.29 68.29 0 0 1 55-32.5v55.6a16.72 16.72 0 0 0 0 32.8v60.34h-17.74a8.47 8.47 0 0 1-8.43-8.47 17.17 17.17 0 0 0-7.8-14.46 68.21 68.21 0 0 1-31.25-57.59 67.46 67.46 0 0 1 5.25-26.06 3.26 3.26 0 0 0-6-2.51 74 74 0 0 0-5.76 28.55 74.73 74.73 0 0 0 34.22 63.08 10.64 10.64 0 0 1 4.84 9 14.86 14.86 0 0 0 4.39 10.6l.44.43a12.29 12.29 0 0 0-4.83 9.78v1.36a12.32 12.32 0 0 0 4 9.08 12.34 12.34 0 0 0-4 9.09v1.35a12.35 12.35 0 0 0 12.34 12.34h2.1a21.69 21.69 0 0 0 42.89 0h2.1a12.35 12.35 0 0 0 12.34-12.34v-1.35a12.31 12.31 0 0 0-4-9.09 12.29 12.29 0 0 0 4-9.08V208a12.35 12.35 0 0 0-12.34-12.34"/><path d="M241.86 100.27l-17.65-3.18a58.47 58.47 0 0 0-8.38-14.48l6.08-16.9a3.25 3.25 0 0 0-1.43-3.92l-26.76-15.45a3.25 3.25 0 0 0-4.12.72l-12.76 15.11a3.25 3.25 0 1 0 5 4.2l11-13 22 12.72-5.78 16.07a3.24 3.24 0 0 0 .57 3.2 52.07 52.07 0 0 1 9.11 15.75 3.26 3.26 0 0 0 2.48 2.1l16.79 3v25.44l-16.79 3a3.28 3.28 0 0 0-2.48 2.1 52.31 52.31 0 0 1-9.11 15.75 3.24 3.24 0 0 0-.57 3.2l5.78 16.06-22 12.73-11-13a3.25 3.25 0 1 0-5 4.2l12.76 15.11a3.25 3.25 0 0 0 4.12.72l26.76-15.45a3.25 3.25 0 0 0 1.43-3.92l-6.08-16.9a58.84 58.84 0 0 0 8.38-14.48l17.65-3.18a3.26 3.26 0 0 0 2.68-3.2v-30.9a3.25 3.25 0 0 0-2.68-3.2"/><path d="M178.25 143.54a3.26 3.26 0 0 0 1.08 6.34 3.14 3.14 0 0 0 1.07-.19 32.6 32.6 0 0 0 0-61.54 3.26 3.26 0 0 0-2.15 6.15 26.08 26.08 0 0 1 0 49.24m-95.57-38.66a3.26 3.26 0 0 0 .63-6.45l-24-4.77a3.26 3.26 0 1 0-1.27 6.39l24 4.77a3.47 3.47 0 0 0 .64.06m-.22-58.09l18.36 16.1a3.26 3.26 0 1 0 4.3-4.9l-18.36-16.1a3.26 3.26 0 0 0-4.3 4.9m30.86 136.36a3.27 3.27 0 0 0-4.6.3l-16.1 18.37a3.26 3.26 0 0 0 4.9 4.29l16.1-18.36a3.26 3.26 0 0 0-.3-4.6m-28.7-38.8l-23.13 7.85a3.26 3.26 0 0 0 1 6.34 3.49 3.49 0 0 0 1.05-.17l23.12-7.86a3.25 3.25 0 1 0-2.09-6.16"/></g></svg>