<svg id="Lager_1" xmlns="http://www.w3.org/2000/svg" xmlns:xlink="http://www.w3.org/1999/xlink" viewBox="0 0 300 255"><style>.st0{clip-path:url(#SVGID_2_)}.st1{fill:#00f1a4}.st2{fill:#ad0470}.st3{fill:#ff7484}.st4{fill:#ffb800}.st5{fill:#1d1d1b}</style><defs><path id="SVGID_1_" d="M32.9 4.3h234.2v246.4H32.9z"/></defs><clipPath id="SVGID_2_"><use xlink:href="#SVGID_1_" overflow="visible"/></clipPath><g class="st0"><path class="st1" d="M239 165.3c-4.4-6.7-3.6-15.7 2-21.5 26.2-26.9 30.2-68.3 9.6-99.7-24.2-36.8-75-47.1-111.5-22.5-20.9 14-33.9 37-35.2 62.1 43.5-6.2 83.8 24 90 67.6.8 5.3 1 10.6.7 15.9 2.1-.3 4.2-.6 6.2-1.1 2.6-.6 5.3-.5 7.8.2l32.1 8.2c1.1.3 2.2-.4 2.5-1.5.1-.6 0-1.2-.3-1.7l-3.9-6z"/><path class="st2" d="M207.8 142.7c-8.2-40.6-42.1-71-83.4-74.6-1.9-.1-3.3-1.8-3.1-3.6 0-.3.1-.5.1-.8C131 33 158.2 11.2 190.3 8.4c-43.8-3.9-82.4 28.4-86.3 72.2-.1 1-.2 2-.2 3 43.5-6.2 83.8 24 90 67.5.8 5.3 1 10.6.7 16 2-.3 4-.6 6.1-1.1 2.6-.6 5.4-.5 8 .1l1 .2c.5-7.7-.1-15.7-1.8-23.6"/><path class="st3" d="M160.2 95.6C124 71.2 73.6 81.4 49.6 117.9c-20.4 31.1-16.4 72.2 9.5 98.9 5.6 5.7 6.4 14.6 2 21.3l-4 6c-.6.9-.4 2.2.6 2.9.5.3 1.1.4 1.7.3l31.8-8.1c2.5-.7 5.2-.7 7.8-.2 42.8 9.3 85.1-17.8 94.4-60.6 6.9-31.9-6.3-64.7-33.2-82.8"/><path class="st4" d="M71.7 244.1l3.9-6c4.4-6.7 3.6-15.5-2-21.3-30.6-31.2-30-81.3 1.2-111.8 13.2-12.9 30.4-20.8 48.8-22.3-28.4-2.6-57.4 10.1-74 35.3-20.4 31.1-16.4 72.2 9.5 98.8 5.6 5.8 6.4 14.6 2 21.3l-4 6c-.6.9-.4 2.2.6 2.9.5.3 1.1.4 1.7.3l12.3-3.2"/><path class="st5" d="M78.5 135.2h74.7c2 0 3.6-1.6 3.6-3.6s-1.6-3.6-3.6-3.6H78.5c-2 0-3.6 1.6-3.6 3.6s1.6 3.6 3.6 3.6m0 16.5h74.7c2 0 3.6-1.6 3.6-3.6s-1.6-3.6-3.6-3.6H78.5c-2 0-3.6 1.6-3.6 3.6s1.6 3.6 3.6 3.6m0 16.6h74.7c2 0 3.6-1.6 3.6-3.6s-1.6-3.6-3.6-3.6H78.5c-2 0-3.6 1.6-3.6 3.6s1.6 3.6 3.6 3.6m0 16.3h74.7c2 0 3.6-1.6 3.6-3.6s-1.6-3.6-3.6-3.6H78.5c-2 0-3.6 1.6-3.6 3.6s1.6 3.6 3.6 3.6m0 16.5h74.7c2 0 3.6-1.6 3.6-3.6s-1.6-3.6-3.6-3.6H78.5c-2 0-3.6 1.6-3.6 3.6s1.6 3.6 3.6 3.6M221.7 53.9H147c-2 0-3.6 1.6-3.6 3.6s1.6 3.6 3.6 3.6h74.7c2 0 3.6-1.6 3.6-3.6s-1.6-3.6-3.6-3.6m0 16.5H147c-2-.1-3.7 1.4-3.8 3.4-.1 2 1.4 3.7 3.4 3.8h75.1c2-.1 3.5-1.8 3.4-3.8-.1-1.8-1.6-3.3-3.4-3.4"/><path class="st5" d="M263.3 95.3c-2-.3-3.8 1-4.1 3-2.3 15.7-9.5 30.2-20.6 41.6-6.7 7-7.7 17.7-2.5 25.8l1.8 2.7-28-7.1c-3.6-.9-7.5-.8-11.1.1 0-11.8-2.5-23.6-7.4-34.4h30.2c2 .1 3.7-1.4 3.8-3.4.1-2-1.4-3.7-3.4-3.8h-34.3c-1.9-3.2-3.9-6.4-6.2-9.3h40.1c2 .1 3.7-1.4 3.8-3.4.1-2-1.4-3.7-3.4-3.8h-46.8c-3.3-3.3-6.8-6.4-10.6-9.1h57c2 .1 3.7-1.4 3.8-3.4.1-2-1.4-3.7-3.4-3.8h-69.3c-13.5-6.7-28.7-9.5-43.7-8.2 4.7-41.6 42.3-71.4 83.8-66.7 36.3 4.1 64.5 33.7 67 70.2.2 2 2 3.4 4 3.2 1.9-.2 3.3-1.8 3.2-3.7-3-45.7-42.5-80.3-88.3-77.2-40.6 2.7-73.3 34.6-77 75.1-45 7.7-75.3 50.5-67.6 95.5a82 82 0 0 0 22.4 43.9c4.4 4.6 5 11.5 1.5 16.8l-4 6c-1.7 2.6-1 6.1 1.7 7.9 1.3.9 2.9 1.1 4.5.7l31.8-8.1c2-.5 4.1-.6 6.1-.1 3.8.8 7.7 1.4 11.6 1.7 2 .2 3.7-1.3 3.9-3.3.2-2-1.3-3.7-3.3-3.9h-.1c-3.5-.3-7.1-.8-10.5-1.5-3.1-.7-6.3-.6-9.4.2l-27.9 7.2 1.8-2.7c5.3-8.1 4.2-18.8-2.5-25.8-41-42.1-20.7-114.9 39.2-127 66.1-13.4 114.8 59.6 78.3 115.4-12 18.3-31.3 30.5-52.9 33.6-2 .3-3.4 2.1-3.1 4s2.1 3.4 4 3.1h.1c38.1-5.3 67.6-36.2 71.2-74.5 3.8-.7 5.9-1.5 9.6-.6l31.8 8.1c3 .8 6.1-1.1 6.9-4.1.4-1.5.1-3.2-.7-4.5l-3.9-6c-3.4-5.3-2.8-12.2 1.6-16.8 12.1-12.4 20.1-28.4 22.6-45.6.2-1.8-1.1-3.6-3.1-4"/></g></svg>