<svg id="Lager_1" xmlns="http://www.w3.org/2000/svg" xmlns:xlink="http://www.w3.org/1999/xlink" viewBox="0 0 300 270"><style>.st0{clip-path:url(#SVGID_2_)}.st1{fill:#e9e4e3}.st2{fill:#ff7484}.st3{fill:#1d1d1b}.st4{fill:#ffb800}.st5{fill:#00f1a4}.st6{fill:#ad0470}</style><defs><path id="SVGID_1_" d="M3.9 3.4h292.2v263.2H3.9z"/></defs><clipPath id="SVGID_2_"><use xlink:href="#SVGID_1_" overflow="visible"/></clipPath><g class="st0"><path class="st1" d="M131.2 20.5C95-3.8 44.6 6.3 20.6 42.9.2 74 4.2 115.1 30.2 141.7c5.6 5.7 6.4 14.6 2 21.3l-4 6c-.6.9-.4 2.2.6 2.9.5.3 1.1.4 1.7.3l31.9-8.1c2.5-.7 5.2-.7 7.8-.2 42.8 9.3 85.1-17.8 94.4-60.6 6.8-31.8-6.4-64.6-33.4-82.8"/><path class="st2" d="M42.7 169l3.9-6c4.4-6.7 3.6-15.5-2-21.3-30.6-31.2-30-81.3 1.2-111.8C59 17 76.2 9.1 94.6 7.6 66.2 5 37.2 17.7 20.6 42.9.2 74 4.2 115.1 30.1 141.7c5.6 5.8 6.4 14.6 2 21.3l-4 6c-.6.9-.4 2.2.6 2.9.5.3 1.1.4 1.7.3l12.3-3.2"/><path class="st3" d="M49.5 60.2h74.7c2 0 3.6-1.6 3.6-3.6s-1.6-3.6-3.6-3.6H49.5c-2 0-3.6 1.6-3.6 3.6s1.6 3.6 3.6 3.6m0 16.5h74.7c2 0 3.6-1.6 3.6-3.6s-1.6-3.6-3.6-3.6H49.5c-2 0-3.6 1.6-3.6 3.6s1.6 3.6 3.6 3.6m0 16.5h74.7c2 0 3.6-1.6 3.6-3.6s-1.6-3.6-3.6-3.6H49.5c-2 0-3.6 1.6-3.6 3.6s1.6 3.6 3.6 3.6m0 16.4h74.7c2 0 3.6-1.6 3.6-3.6s-1.6-3.6-3.6-3.6H49.5c-2 0-3.6 1.6-3.6 3.6s1.6 3.6 3.6 3.6m0 16.5h74.7c2 0 3.6-1.6 3.6-3.6s-1.6-3.6-3.6-3.6H49.5c-2 0-3.6 1.6-3.6 3.6s1.6 3.6 3.6 3.6"/><path class="st3" d="M72.7 4.7c-45 7.7-75.3 50.5-67.6 95.5C8 116.7 15.8 132 27.5 144c4.4 4.6 5 11.5 1.5 16.8l-4 6c-1.7 2.6-1 6.1 1.7 7.9 1.3.9 2.9 1.1 4.5.7l31.8-8.1c2-.5 4.1-.6 6.1-.1 3.8.8 7.7 1.4 11.6 1.7 2 .1 3.7-1.3 3.9-3.3s-1.3-3.7-3.3-3.9c-3.5-.3-7.1-.8-10.5-1.5-3.1-.7-6.3-.6-9.4.2l-28 7.2 1.8-2.7c5.2-8.1 4.2-18.7-2.4-25.7C-8.3 97.1 12 24.3 71.9 12.2 138-1.2 186.7 71.8 150.2 127.5c-12 18.3-31.3 30.5-52.9 33.6-2 .3-3.4 2.1-3.1 4s2.1 3.4 4 3.1h.1c38.1-5.3 67.6-36.2 71.2-74.5.3-2.5.4-4.9.3-7.4 0-11.8-2.5-23.5-7.4-34.3l-3.7-7.2c-1.9-3.2-3.9-6.4-6.2-9.3l-6.3-7.2c-3.3-3.3-6.8-6.4-10.6-9.1L123.7 12C110.2 5.3 95 2.5 80 3.8c-2.3.1-3.4.4-7.3.9"/><path class="st2" d="M268 181.2c-4.4-6.7-3.6-15.7 2-21.5 26.2-26.9 30.2-68.3 9.6-99.7-24.1-36.9-75-47.1-111.5-22.5-20.9 14-33.9 37-35.2 62.1 43.5-6.2 83.8 24 90.1 67.6.8 5.3 1 10.6.7 16 2.1-.3 4.2-.6 6.2-1.1 2.6-.5 5.3-.5 7.8.2l32.1 8.2c1.1.3 2.2-.4 2.5-1.5.1-.6 0-1.2-.3-1.7l-4-6.1z"/><path class="st4" d="M236.8 158.7c-8.2-40.6-42.1-71-83.4-74.6-1.9-.2-3.3-1.8-3.1-3.7 0-.2.1-.5.1-.7 9.6-30.7 36.8-52.5 68.8-55.3-43.8-3.9-82.4 28.4-86.2 72.2-.1 1-.2 2-.2 3 43.5-6.2 83.8 24 90.1 67.6.8 5.3 1 10.6.7 16 2-.3 4-.6 6-1.1 2.6-.6 5.4-.5 8 .1l1 .2c.4-7.9-.2-15.9-1.8-23.7"/><path class="st5" d="M189.2 111.5C153 87.1 102.6 97.3 78.6 133.9c-20.4 31.1-16.4 72.2 9.5 98.8 5.6 5.8 6.4 14.6 2 21.3l-4 6c-.6 1-.4 2.2.6 2.9.5.3 1.1.4 1.6.3l31.9-8.1c2.5-.7 5.2-.7 7.7-.2 42.8 9.3 85.1-17.8 94.4-60.6 7.1-31.8-6.1-64.6-33.1-82.8"/><path class="st6" d="M100.7 260l3.9-6c4.4-6.7 3.6-15.5-2-21.3-30.6-31.2-30-81.3 1.2-111.8 13.2-12.9 30.4-20.8 48.8-22.3-28.4-2.6-57.4 10.1-73.9 35.3-20.4 31.1-16.4 72.2 9.5 98.8 5.6 5.7 6.4 14.6 2 21.3l-4 6c-.6 1-.3 2.2.6 2.9.5.3 1.1.4 1.6.3l12.3-3.2"/><path class="st3" d="M107.5 151.2h74.7c2 0 3.6-1.6 3.6-3.6s-1.6-3.6-3.6-3.6h-74.7c-2 0-3.6 1.6-3.6 3.6s1.6 3.6 3.6 3.6m0 16.5h74.7c2 .1 3.7-1.4 3.8-3.4.1-2-1.4-3.7-3.4-3.8h-75.1c-2-.1-3.7 1.4-3.8 3.4-.1 2 1.4 3.7 3.4 3.8h.4m0 16.5h74.7c2 0 3.6-1.6 3.6-3.6s-1.6-3.6-3.6-3.6h-74.7c-2 0-3.6 1.6-3.6 3.6s1.6 3.6 3.6 3.6m0 16.3h74.7c2 .1 3.7-1.4 3.8-3.4.1-2-1.4-3.7-3.4-3.8h-75.1c-2-.1-3.7 1.4-3.8 3.4-.1 2 1.4 3.7 3.4 3.8h.4m0 16.6h74.7c2 0 3.6-1.6 3.6-3.6s-1.6-3.6-3.6-3.6h-74.7c-2 0-3.6 1.6-3.6 3.6s1.6 3.6 3.6 3.6M250.7 69.8H176c-2 0-3.6 1.6-3.6 3.6S174 77 176 77h74.7c2 0 3.6-1.6 3.6-3.6s-1.6-3.6-3.6-3.6m0 16.5H176c-2 0-3.6 1.6-3.6 3.6s1.6 3.6 3.6 3.6h74.7c2 0 3.6-1.6 3.6-3.6s-1.6-3.6-3.6-3.6"/><path class="st3" d="M292.3 111.2c-2-.3-3.8 1-4.1 3-2.3 15.7-9.5 30.2-20.6 41.6-6.7 7-7.7 17.7-2.5 25.8l1.8 2.7-28-7.1c-3.6-.9-7.5-.8-11.1.1 0-11.8-2.5-23.6-7.4-34.4h30.2c2 0 3.6-1.6 3.6-3.6s-1.6-3.6-3.6-3.6h-33.9c-1.9-3.2-3.9-6.3-6.2-9.3h40.1c2 0 3.6-1.6 3.6-3.6s-1.6-3.6-3.6-3.6h-46.4c-3.3-3.3-6.8-6.4-10.6-9.1h57c2 0 3.6-1.6 3.6-3.6s-1.6-3.6-3.6-3.6h-68.9c-13.5-6.7-28.7-9.5-43.7-8.2 4.7-41.6 42.3-71.4 83.8-66.7 36.3 4.1 64.5 33.7 67 70.2 0 2 1.7 3.6 3.7 3.5 2 0 3.6-1.7 3.5-3.7v-.3c-3-45.7-42.5-80.3-88.3-77.2-40.6 2.7-73.3 34.6-77 75.1-45 7.7-75.3 50.4-67.6 95.5A82 82 0 0 0 85.5 235c4.3 4.6 5 11.5 1.5 16.8l-4 6c-1.7 2.6-1 6.1 1.7 7.8 1.3.9 3 1.1 4.5.7l31.8-8.1c2-.5 4.1-.6 6.1-.1 3.8.8 7.7 1.4 11.6 1.7 2 .2 3.7-1.3 3.9-3.3.2-2-1.3-3.7-3.3-3.9h-.1c-3.5-.3-7.1-.8-10.5-1.5-3.1-.7-6.3-.6-9.4.2l-27.9 7.1 1.8-2.7c5.2-8.1 4.3-18.7-2.4-25.7-41.1-41.9-20.8-114.7 39.1-126.9 66.1-13.4 114.8 59.6 78.3 115.4-12 18.3-31.3 30.5-52.9 33.6-2 .3-3.3 2.1-3 4.1.3 1.9 2.1 3.3 4 3 38.1-5.3 67.6-36.2 71.2-74.5 3.8-.7 5.9-1.5 9.6-.5l31.8 8.1c3 .8 6.1-1.1 6.9-4.1.4-1.5.1-3.2-.7-4.5l-3.9-6c-3.4-5.3-2.8-12.2 1.6-16.8 12.1-12.4 20.1-28.4 22.6-45.5.2-2-1.1-3.8-3.1-4.2"/></g></svg>