<svg viewBox="0 0 299.99 299.99" xmlns="http://www.w3.org/2000/svg"><path d="m265.51 106.38h-235.87v119.4a30.25 30.25 0 0 0 30.24 30.22h205.63a4.85 4.85 0 0 0 4.84-4.85v-139.92a4.85 4.85 0 0 0 -4.84-4.85" fill="#e5fef6"/><path d="m270.35 111.23v140a4.84 4.84 0 0 1 -4.84 4.84h-12.21a4.84 4.84 0 0 0 4.84-4.84v-140a4.84 4.84 0 0 0 -4.84-4.84h12.21a4.84 4.84 0 0 1 4.84 4.84" fill="#00f1a4"/><path d="m72.19 188.77a4.85 4.85 0 0 1 -4.84 4.85h-7.47a30.24 30.24 0 0 0 -30.24 30.24v-149.65a30.25 30.25 0 0 1 30.24-30.21h7.47a4.85 4.85 0 0 1 4.84 4.85z" fill="#ff7484"/><path d="m181.23 145.17-15.6 7.75a2.14 2.14 0 0 1 -3-2.66l6-16.34z" fill="#7b6671"/><path d="m184.58 144.21 62.59-69.68a3.58 3.58 0 0 0 -.26-5l-10-9a3.58 3.58 0 0 0 -5.05.27l-62.56 69.69a3.56 3.56 0 0 0 .27 5l10 8.95a3.57 3.57 0 0 0 5.05-.27" fill="#ffb800"/><path d="m184.58 144.21 62.59-69.68a3.58 3.58 0 0 0 -.26-5l-5-4.48-67.37 75 5 4.47a3.57 3.57 0 0 0 5.05-.27" fill="#ffb800"/><path d="m240.39 82.07 6.78-7.54a3.57 3.57 0 0 0 -.27-5l-10-9a3.58 3.58 0 0 0 -5.05.27l-6.78 7.55z" fill="#ff7484"/><g fill="#1d1d1b"><path d="m181.92 141.74-2.24-2 53.32-59.4 2.24 2zm-11.9-.91 4.2 3.77-6.85 3.4zm55.37-67.35 2.23 2-53.35 59.39-2.24-2zm19.05-1.34-4.32 4.86-9.88-8.88 4.32-4.8zm21.07 30.61h-38.8l23.17-25.75a7.22 7.22 0 0 0 -.55-10.18l-10-9a7.22 7.22 0 0 0 -10.18.54l-39.87 44.38h-69.34a3.64 3.64 0 0 0 0 7.27h62.86l-16.21 18a7.15 7.15 0 0 0 -1.83 5.2 5.23 5.23 0 0 0 .07.68l-5.57 15.11a5.78 5.78 0 0 0 5.41 7.79 6 6 0 0 0 2.58-.61l14.39-7.18h.66a7.12 7.12 0 0 0 5-2.38l32.88-36.62h45.33a1.21 1.21 0 0 1 1.21 1.21v140a1.21 1.21 0 0 1 -1.21 1.21h-26.43a3.64 3.64 0 0 0 0 7.27h26.43a8.5 8.5 0 0 0 8.48-8.48v-139.98a8.49 8.49 0 0 0 -8.48-8.48"/><path d="m223.26 252.39h-163.38a26.64 26.64 0 0 1 -26.61-26.61v-1.92a26.64 26.64 0 0 1 26.61-26.61h7.47a8.48 8.48 0 0 0 8.47-8.48v-78.77h28.3a3.64 3.64 0 1 0 0-7.27h-28.3v-12.59a3.63 3.63 0 1 0 -7.26 0v98.63a1.22 1.22 0 0 1 -1.21 1.23h-7.47a33.84 33.84 0 0 0 -26.61 12.93v-128.72a26.64 26.64 0 0 1 26.61-26.61h7.47a1.21 1.21 0 0 1 1.21 1.21v25.51a3.63 3.63 0 0 0 7.26 0v-25.51a8.49 8.49 0 0 0 -8.47-8.48h-7.47a33.91 33.91 0 0 0 -33.88 33.88v151.57a33.91 33.91 0 0 0 33.87 33.88h163.39a3.64 3.64 0 1 0 0-7.27"/><path d="m220.36 189.69v-18.69a3.62 3.62 0 0 0 -3.63-3.63h-17.49a20.66 20.66 0 1 1 21.12 22.33m-41.49 19.16v-34.24h13.6a28 28 0 0 0 20.63 21.52v12.71zm34.23-20.28a20.76 20.76 0 0 1 -13.16-13.95h13.16zm6.73-47.47a28 28 0 0 0 -27.83 26.25h-16.76a3.63 3.63 0 0 0 -3.64 3.64v41.49a3.64 3.64 0 0 0 3.64 3.64h41.49a3.63 3.63 0 0 0 3.63-3.64v-15.49a27.93 27.93 0 0 0 -.53-55.85"/><path d="m233.33 199.48a3.63 3.63 0 0 0 0 7.26h8.08a3.63 3.63 0 0 0 0-7.26zm11.67 13a3.63 3.63 0 0 0 -3.63-3.63h-8.08a3.64 3.64 0 0 0 0 7.27h8.08a3.63 3.63 0 0 0 3.63-3.64m-152.64-72.83h5.81a3.63 3.63 0 0 0 0-7.26h-5.81a3.63 3.63 0 1 0 0 7.26m0 10.59h28a3.64 3.64 0 0 0 0-7.27h-28a3.64 3.64 0 0 0 0 7.27m22.23-10.59h5.81a3.63 3.63 0 0 0 0-7.26h-5.81a3.63 3.63 0 1 0 0 7.26m28.04-7.26h-5.81a3.63 3.63 0 1 0 0 7.26h5.81a3.63 3.63 0 0 0 0-7.26m-50.27 28.35h28a3.63 3.63 0 0 0 0-7.26h-28a3.63 3.63 0 0 0 0 7.26m-3.63 6.87a3.62 3.62 0 0 0 3.63 3.63h44.46a3.63 3.63 0 0 0 0-7.26h-44.46a3.63 3.63 0 0 0 -3.63 3.63m57.53 10.51a3.63 3.63 0 0 0 -3.63-3.64h-50.27a3.64 3.64 0 0 0 0 7.27h50.27a3.63 3.63 0 0 0 3.63-3.63m-47.52 23.3h-2.74v-2.75h2.75zm7.26-6.42a3.62 3.62 0 0 0 -3.63-3.63h-10a3.62 3.62 0 0 0 -3.64 3.63v10a3.63 3.63 0 0 0 3.63 3.63h10a3.63 3.63 0 0 0 3.63-3.63zm16.75 6.42h-2.75v-2.75h2.74zm7.25-6.42a3.63 3.63 0 0 0 -3.63-3.63h-10a3.63 3.63 0 0 0 -3.64 3.63v10a3.64 3.64 0 0 0 3.64 3.63h10a3.64 3.64 0 0 0 3.63-3.63zm16.77 6.42h-2.77v-2.75h2.74zm7.23-6.42a3.63 3.63 0 0 0 -3.64-3.63h-10a3.63 3.63 0 0 0 -3.63 3.63v10a3.64 3.64 0 0 0 3.63 3.63h10a3.64 3.64 0 0 0 3.64-3.63zm-55.26 31.92h-2.74v-2.74h2.75zm3.63-10h-10a3.62 3.62 0 0 0 -3.63 3.63v10a3.63 3.63 0 0 0 3.63 3.63h10a3.64 3.64 0 0 0 3.63-3.63v-10a3.63 3.63 0 0 0 -3.63-3.63m20.38 10h-2.75v-2.74h2.74zm3.64-10h-10a3.63 3.63 0 0 0 -3.64 3.63v10a3.64 3.64 0 0 0 3.64 3.63h10a3.64 3.64 0 0 0 3.63-3.63v-10a3.63 3.63 0 0 0 -3.63-3.63m17.61 7.26h2.74v2.74h-2.74zm-3.64 10h10a3.64 3.64 0 0 0 3.64-3.63v-10a3.64 3.64 0 0 0 -3.64-3.64h-10a3.64 3.64 0 0 0 -3.63 3.64v10a3.64 3.64 0 0 0 3.63 3.63"/></g></svg>