<?xml version="1.0" encoding="UTF-8"?>
<svg id="Artwork" xmlns="http://www.w3.org/2000/svg" version="1.1" viewBox="0 0 807.9 221.1">
  <defs>
    <style>
      .cls-1 {
        fill: #000;
        stroke-width: 0px;
      }
    </style>
  </defs>
  <path class="cls-1" d="M5.7,7.9v32.5H0V4h10.2l8.1,30.6L26.5,4h10.1v36.4h-5.8V7.9l-9.1,32.5h-7L5.7,7.9Z"/>
  <path class="cls-1" d="M42,27c0-8.9,4.7-14.1,12.2-14.1s11.8,5.7,11.8,12.9,0,2-.2,2.9h-17.9c.4,5,2.6,7.4,6.4,7.4s4.6-1.5,5.3-3.6h5.7c-.9,4.1-3.7,8.5-11,8.5s-12.3-5.1-12.3-14.1ZM60.3,24.2c-.4-4.2-2.5-6.3-6-6.3s-5.6,1.7-6.2,6.3h12.3Z"/>
  <path class="cls-1" d="M69.4,26.9c0-9.2,4-13.9,10.1-13.9s7.4,2.7,8.6,7.8V2.7h5.9v37.8h-5.9v-7.2c-1.2,5.1-4.5,7.6-8.6,7.6-6.2,0-10.1-4.7-10.1-13.9ZM81.8,35.7c3.7,0,6.3-2.7,6.3-8.6s-2.7-8.7-6.3-8.7-6.4,2.7-6.4,8.7,2.2,8.7,6.4,8.7Z"/>
  <path class="cls-1" d="M108.9,32.8h5.8c.4,2.1,2.1,3.7,5.5,3.7s4.6-1.5,4.6-3.1-1-2.8-4-3.5l-4.2-1c-4.5-1-7.2-3.4-7.2-7.6s4-8.4,10.1-8.4,10.2,3.2,10.7,8.7h-5.9c-.3-2.3-1.8-3.8-4.9-3.8s-4.2,1.5-4.2,3.2,1.5,2.7,4.5,3.4l3.7.8c4.6,1.1,7.1,3.4,7.1,7.5s-3.6,8.4-10.5,8.4-10.7-2.9-11.2-8.3Z"/>
  <path class="cls-1" d="M137.2,33.5v-15h-4v-4.9h4v-5.5l5.8-2v7.4h5.7v4.9h-5.7v14.1c0,2.7,1.2,3.5,3.3,3.5s1.7-.1,2.5-.4v4.6c-1.2.5-2.4.7-4.2.7-4.5,0-7.4-2.1-7.4-7.4Z"/>
  <path class="cls-1" d="M151.1,27c0-9.4,5-14.1,12.3-14.1s12.3,4.7,12.3,14.1-5,14.1-12.3,14.1-12.3-4.7-12.3-14.1ZM158.5,3.4c1.9,0,3.3,1.5,3.3,3.3s-1.5,3.3-3.3,3.3-3.4-1.5-3.4-3.3,1.5-3.3,3.4-3.3ZM163.4,36c3.9,0,6.3-2.5,6.3-8.9s-2.4-8.9-6.3-8.9-6.3,2.6-6.3,8.9,2.4,8.9,6.3,8.9ZM168.3,3.4c1.9,0,3.3,1.5,3.3,3.3s-1.5,3.3-3.3,3.3-3.4-1.5-3.4-3.3,1.5-3.3,3.4-3.3Z"/>
  <path class="cls-1" d="M179.3,26.9c0-9.2,4-13.9,10.1-13.9s7.4,2.7,8.6,7.8V2.7h5.9v37.8h-5.9v-7.2c-1.2,5.1-4.5,7.6-8.6,7.6-6.2,0-10.1-4.7-10.1-13.9ZM191.6,35.7c3.7,0,6.3-2.7,6.3-8.6s-2.7-8.7-6.3-8.7-6.4,2.7-6.4,8.7,2.2,8.7,6.4,8.7Z"/>
  <path class="cls-1" d="M230.2,2.2c1.8,0,3.2.2,4.4.6v4.8c-.7-.2-1.6-.4-2.7-.4-2.4,0-3.7,1-3.7,3.8v2.7h6.1v4.9h-6.1v21.9h-5.8v-21.9h-4v-4.9h4v-3.7c0-5.6,3.2-7.7,7.7-7.7Z"/>
  <path class="cls-1" d="M237.9,13.6h5.9v8.1c1.1-6.1,4.7-8.4,8-8.4h.6v6.4h-1.8c-3.6,0-6.8,1.3-6.8,6.9v13.8h-5.9V13.6Z"/>
  <path class="cls-1" d="M254.9,33.3c0-5.8,4.4-8.2,9.3-8.2h6.8v-2.3c0-3.2-1.9-4.9-4.9-4.9s-4.7,1.7-5,4.4h-5.9c.6-6.1,5.3-9.4,10.8-9.4s10.9,3.8,10.9,9.8v17.7h-5.9v-6.2c-1.1,4.5-4.1,6.7-8.1,6.7s-8-2.8-8-7.6ZM265,36.5c3,0,6-2,6-7.1h-5.9c-2.7,0-4.3,1.2-4.3,3.6s1.7,3.5,4.2,3.5ZM266.4,0c3.2,0,5.6,2.4,5.6,5.4s-2.3,5.4-5.6,5.4-5.6-2.3-5.6-5.4,2.4-5.4,5.6-5.4ZM266.4,7.7c1.3,0,2.2-1,2.2-2.3s-.9-2.3-2.2-2.3-2.3,1-2.3,2.3.9,2.3,2.3,2.3Z"/>
  <path class="cls-1" d="M282.7,13.6h5.9v6.5c1-4.9,4.6-7,8.3-7s7.9,3.2,7.9,8.6v18.7h-5.9v-16.9c0-3.3-1.9-5.3-4.9-5.3s-5.4,2-5.4,6.8v15.4h-5.9V13.6Z"/>
  <g>
    <path class="cls-1" d="M181.5,185.9c0-14.9,7-21.6,16.9-21.6s15.1,4.6,15.8,14.6h-7.2c-.6-5.6-3.7-8.1-8.6-8.1s-9.7,3.9-9.7,15.2,3.6,15.2,10,15.2,8.3-2.7,8.5-9.1h-9.1v-6.2h15.9v20.7h-6.9v-8.6c-1.1,6.3-5.4,9.4-10.8,9.4-8.9,0-14.9-6.3-14.9-21.5Z"/>
    <path class="cls-1" d="M221.8,185.9c0-14.6,6.9-21.6,17.4-21.6s17.3,7,17.3,21.6-6.9,21.5-17.3,21.5-17.4-6.9-17.4-21.5ZM239.2,201.1c6.1,0,10-3.9,10-15.2s-3.9-15.2-10-15.2-10.1,3.9-10.1,15.2,4,15.2,10.1,15.2ZM233.3,154.7c2.1,0,3.8,1.7,3.8,3.8s-1.7,3.8-3.8,3.8-3.9-1.7-3.9-3.8,1.7-3.8,3.9-3.8ZM245.1,154.7c2.1,0,3.9,1.7,3.9,3.8s-1.7,3.8-3.9,3.8-3.9-1.7-3.9-3.8,1.7-3.8,3.9-3.8Z"/>
    <path class="cls-1" d="M271,171.5h-10.2v-6.4h27.5v6.4h-10.2v35.1h-7v-35.1Z"/>
    <path class="cls-1" d="M314.8,195h-14.6l-3.1,11.6h-7l11.6-41.5h12l11.6,41.5h-7.2l-3.1-11.6ZM313.1,188.8l-5.6-20.6-5.6,20.6h11.2Z"/>
    <path class="cls-1" d="M332.4,165.1h7v35.1h15.9v6.3h-22.9v-41.5Z"/>
    <path class="cls-1" d="M385.5,195h-14.6l-3.1,11.6h-7l11.6-41.5h12l11.6,41.5h-7.2l-3.1-11.6ZM383.8,188.8l-5.6-20.6-5.6,20.6h11.2Z"/>
    <path class="cls-1" d="M409.9,169.2v37.4h-6.6v-41.5h11.7l14,36.3v-36.3h6.6v41.5h-11.2l-14.6-37.4Z"/>
    <path class="cls-1" d="M446.5,165.1h14.3c10.5,0,17.6,6.2,17.6,20.7s-7.7,20.7-18,20.7h-13.9v-41.5ZM460.1,200.5c7,0,11.1-3.8,11.1-14.5s-3.9-14.5-10.8-14.5h-6.9v29h6.6Z"/>
    <path class="cls-1" d="M485,195.2h7.2c.6,3.9,3.4,6.3,8.5,6.3s7.3-2.6,7.3-5.7-1.7-4.7-6.2-5.9l-6.5-1.8c-5.3-1.5-9.7-4.6-9.7-11.3s5.3-12.4,14.2-12.4,14.3,5,14.9,13h-7.1c-.5-4.3-3.1-6.8-7.9-6.8s-6.9,2.8-6.9,5.7,2.1,4.9,6.8,6l5.6,1.4c6.4,1.6,10,5.2,10,11.3s-5.6,12.4-14.6,12.4-15-4.4-15.6-12.2Z"/>
    <path class="cls-1" d="M524.4,165.1h15.3c8.1,0,12.7,4.4,12.7,12.1s-3.9,11.2-11,11.7l11,17.7h-7.6l-13.4-21.7v21.7h-7v-41.5ZM538.5,184.4c4.4,0,6.9-2.1,6.9-6.6s-2.5-6.5-6.9-6.5h-7.1v13.1h7.1Z"/>
    <path class="cls-1" d="M561.7,165.1h24.9v6.4h-17.9v10.8h17.3v6.2h-17.3v11.8h18.1v6.2h-25.1v-41.5Z"/>
    <path class="cls-1" d="M594.2,185.9c0-14.9,7-21.6,16.9-21.6s15.1,4.6,15.8,14.6h-7.2c-.6-5.6-3.7-8.1-8.6-8.1s-9.7,3.9-9.7,15.2,3.6,15.2,10,15.2,8.3-2.7,8.5-9.1h-9.1v-6.2h15.9v20.7h-6.9v-8.6c-1.1,6.3-5.4,9.4-10.8,9.4-8.9,0-14.9-6.3-14.9-21.5Z"/>
    <path class="cls-1" d="M637.4,165.1h7v41.5h-7v-41.5Z"/>
    <path class="cls-1" d="M653.6,185.9c0-14.6,6.9-21.6,17.4-21.6s17.3,7,17.3,21.6-6.9,21.5-17.3,21.5-17.4-6.9-17.4-21.5ZM670.9,201.1c6.1,0,10-3.9,10-15.2s-3.9-15.2-10-15.2-10.1,3.9-10.1,15.2,4,15.2,10.1,15.2Z"/>
    <path class="cls-1" d="M703.8,169.2v37.4h-6.6v-41.5h11.7l14,36.3v-36.3h6.6v41.5h-11.2l-14.6-37.4Z"/>
    <path class="cls-1" d="M740.6,165.1h24.9v6.4h-17.9v10.8h17.3v6.2h-17.3v11.8h18.1v6.2h-25.1v-41.5Z"/>
    <path class="cls-1" d="M782.2,169.2v37.4h-6.6v-41.5h11.7l14,36.3v-36.3h6.6v41.5h-11.2l-14.6-37.4Z"/>
  </g>
  <g>
    <path class="cls-1" d="M181.9,103h7.3l10,37.7,10-37.7h7.1l-11.4,41.5h-11.7l-11.4-41.5Z"/>
    <path class="cls-1" d="M242.5,132.9h-14.6l-3.1,11.6h-7l11.6-41.5h12l11.6,41.5h-7.2l-3.1-11.6ZM229.4,92.6c2.1,0,3.9,1.7,3.9,3.8s-1.7,3.8-3.9,3.8-3.9-1.7-3.9-3.8,1.7-3.8,3.9-3.8ZM240.7,126.7l-5.6-20.6-5.6,20.6h11.2ZM241.2,92.6c2.1,0,3.9,1.7,3.9,3.8s-1.7,3.8-3.9,3.8-3.9-1.7-3.9-3.8,1.7-3.8,3.9-3.8Z"/>
    <path class="cls-1" d="M257.2,133h7.2c.6,3.9,3.4,6.3,8.5,6.3s7.3-2.6,7.3-5.7-1.7-4.7-6.2-5.9l-6.5-1.8c-5.3-1.5-9.7-4.6-9.7-11.3s5.3-12.4,14.2-12.4,14.3,5,14.9,13h-7.1c-.5-4.3-3.1-6.8-7.9-6.8s-6.9,2.8-6.9,5.7,2.1,4.9,6.8,6l5.6,1.4c6.4,1.6,10,5.2,10,11.3s-5.6,12.4-14.6,12.4-15-4.4-15.6-12.2Z"/>
    <path class="cls-1" d="M302.3,109.4h-10.2v-6.4h27.5v6.4h-10.2v35.1h-7v-35.1Z"/>
    <path class="cls-1" d="M327,103h15.3c8.1,0,12.7,4.4,12.7,12.1s-3.9,11.2-11,11.7l11,17.7h-7.6l-13.4-21.7v21.7h-7v-41.5ZM341.1,122.3c4.4,0,6.9-2.1,6.9-6.6s-2.5-6.5-6.9-6.5h-7.1v13.1h7.1Z"/>
    <path class="cls-1" d="M385.6,132.9h-14.6l-3.1,11.6h-7l11.6-41.5h12l11.6,41.5h-7.2l-3.1-11.6ZM383.8,126.7l-5.6-20.6-5.6,20.6h11.2Z"/>
  </g>
  <g>
    <path id="Bana_3" data-name="Bana 3" class="cls-1" d="M89.1,176.6c-13.2,1.3-27-3.1-37-10.9l32.3,55.5c5.3-9,27.5-47.2,32.3-55.5-7.7,6.1-17.3,10-27.6,10.9Z"/>
    <path id="Bana_2" data-name="Bana 2" class="cls-1" d="M168.2,77.2h-49.3c-7.2.1-17-.4-24.2,1-15,2.8-31.3,11.9-36.8,31.4-1.5,5.5-1.7,11.6,0,17.1,4.2,16.5,22.3,27.5,37.7,18.8,6.9-4,11.3-12,10.7-20-.6-11.1-10.7-20.2-21.8-20,5.9-5,14.2-7.3,21.9-6.1,0,0,0,0,0,0,17.2,2.8,28.8,22.1,26,39.5l35.9-61.7Z"/>
    <path id="Bana_1" data-name="Bana 1" class="cls-1" d="M73.4,77.2H.6l35.9,61.7c-.6-3.1-.9-6.3-.9-9.6,0-25.7,17.7-44.4,37.8-52Z"/>
  </g>
</svg>